<?xml version="1.0" encoding="UTF-8" standalone="no"?>
<!DOCTYPE svg PUBLIC "-//W3C//DTD SVG 1.1//EN"
 "http://www.w3.org/Graphics/SVG/1.1/DTD/svg11.dtd">
<!-- Generated by graphviz version 2.43.0 (0)
 -->
<!-- Title: D Pages: 1 -->
<svg width="605pt" height="868pt"
 viewBox="0.00 0.00 604.50 868.00" xmlns="http://www.w3.org/2000/svg" xmlns:xlink="http://www.w3.org/1999/xlink">
<g id="graph0" class="graph" transform="scale(1 1) rotate(0) translate(4 864)">
<title>D</title>
<polygon fill="white" stroke="transparent" points="-4,4 -4,-864 600.5,-864 600.5,4 -4,4"/>
<!-- m1 -->
<g id="node1" class="node">
<title>m1</title>
<polygon fill="none" stroke="black" points="366.5,-860 183.5,-860 183.5,-824 366.5,-824 366.5,-860"/>
<text text-anchor="middle" x="275" y="-838.3" font-family="Times,serif" font-size="14.00">HCHS cohort (n=2648)</text>
</g>
<!-- n1 -->
<g id="node2" class="node">
<title>n1</title>
<ellipse fill="black" stroke="black" cx="275" cy="-770" rx="0.36" ry="0.36"/>
</g>
<!-- m1&#45;&gt;n1 -->
<g id="edge1" class="edge">
<title>m1&#45;&gt;n1</title>
<path fill="none" stroke="black" d="M275,-823.7C275,-803.62 275,-772.99 275,-771.09"/>
</g>
<!-- e1 -->
<g id="node3" class="node">
<title>e1</title>
<polygon fill="none" stroke="black" points="515,-788 293,-788 293,-752 515,-752 515,-788"/>
<text text-anchor="middle" x="404" y="-766.3" font-family="Times,serif" font-size="14.00">Previously analysed (n=970)</text>
</g>
<!-- n1&#45;&gt;e1 -->
<g id="edge2" class="edge">
<title>n1&#45;&gt;e1</title>
<path fill="none" stroke="black" d="M275.5,-770C277.94,-770 280.37,-770 282.81,-770"/>
<polygon fill="black" stroke="black" points="282.82,-773.5 292.82,-770 282.82,-766.5 282.82,-773.5"/>
</g>
<!-- m2 -->
<g id="node4" class="node">
<title>m2</title>
<polygon fill="none" stroke="black" points="378,-716 172,-716 172,-680 378,-680 378,-716"/>
<text text-anchor="middle" x="275" y="-694.3" font-family="Times,serif" font-size="14.00">Unseen subjects (n=1678)</text>
</g>
<!-- n1&#45;&gt;m2 -->
<g id="edge3" class="edge">
<title>n1&#45;&gt;m2</title>
<path fill="none" stroke="black" d="M275,-768.95C275,-767.75 275,-745.43 275,-726.32"/>
<polygon fill="black" stroke="black" points="278.5,-726.19 275,-716.19 271.5,-726.19 278.5,-726.19"/>
</g>
<!-- n2 -->
<g id="node5" class="node">
<title>n2</title>
<ellipse fill="black" stroke="black" cx="275" cy="-610" rx="0.36" ry="0.36"/>
</g>
<!-- m2&#45;&gt;n2 -->
<g id="edge4" class="edge">
<title>m2&#45;&gt;n2</title>
<path fill="none" stroke="black" d="M275,-679.6C275,-655.25 275,-613.7 275,-611.13"/>
</g>
<!-- e2 -->
<g id="node6" class="node">
<title>e2</title>
<polygon fill="none" stroke="black" points="468.5,-644 293.5,-644 293.5,-576 468.5,-576 468.5,-644"/>
<text text-anchor="start" x="301.5" y="-628.8" font-family="Times,serif" font-size="14.00">Sequences missing</text>
<text text-anchor="start" x="301.5" y="-613.8" font-family="Times,serif" font-size="14.00"> &#45;T1 missing (n=10)</text>
<text text-anchor="start" x="301.5" y="-598.8" font-family="Times,serif" font-size="14.00"> &#45;FLAIR missing (n=8)</text>
<text text-anchor="start" x="301.5" y="-583.8" font-family="Times,serif" font-size="14.00"> &#45;BOLD missing (n=4)</text>
</g>
<!-- n2&#45;&gt;e2 -->
<g id="edge5" class="edge">
<title>n2&#45;&gt;e2</title>
<path fill="none" stroke="black" d="M275.41,-610C277.91,-610 280.4,-610 282.9,-610"/>
<polygon fill="black" stroke="black" points="283.15,-613.5 293.15,-610 283.15,-606.5 283.15,-613.5"/>
</g>
<!-- m3 -->
<g id="node7" class="node">
<title>m3</title>
<polygon fill="none" stroke="black" points="384.5,-540 165.5,-540 165.5,-504 384.5,-504 384.5,-540"/>
<text text-anchor="middle" x="275" y="-518.3" font-family="Times,serif" font-size="14.00">Complete imaging (n=1665)</text>
</g>
<!-- n2&#45;&gt;m3 -->
<g id="edge6" class="edge">
<title>n2&#45;&gt;m3</title>
<path fill="none" stroke="black" d="M275,-608.94C275,-607.33 275,-575.11 275,-550.59"/>
<polygon fill="black" stroke="black" points="278.5,-550.33 275,-540.33 271.5,-550.33 278.5,-550.33"/>
</g>
<!-- nTUMOR -->
<g id="node8" class="node">
<title>nTUMOR</title>
<ellipse fill="black" stroke="black" cx="275" cy="-450" rx="0.36" ry="0.36"/>
</g>
<!-- m3&#45;&gt;nTUMOR -->
<g id="edge7" class="edge">
<title>m3&#45;&gt;nTUMOR</title>
<path fill="none" stroke="black" d="M275,-503.7C275,-483.62 275,-452.99 275,-451.09"/>
</g>
<!-- eTUMOR -->
<g id="node9" class="node">
<title>eTUMOR</title>
<polygon fill="none" stroke="black" points="596.5,-468 293.5,-468 293.5,-432 596.5,-432 596.5,-468"/>
<text text-anchor="middle" x="445" y="-446.3" font-family="Times,serif" font-size="14.00">Intra&#45;axial space&#45;occupying lesion (n=5)</text>
</g>
<!-- nTUMOR&#45;&gt;eTUMOR -->
<g id="edge8" class="edge">
<title>nTUMOR&#45;&gt;eTUMOR</title>
<path fill="none" stroke="black" d="M275.66,-450C278.13,-450 280.59,-450 283.06,-450"/>
<polygon fill="black" stroke="black" points="283.19,-453.5 293.19,-450 283.19,-446.5 283.19,-453.5"/>
</g>
<!-- mTUMOR -->
<g id="node10" class="node">
<title>mTUMOR</title>
<polygon fill="none" stroke="black" points="385.5,-396 164.5,-396 164.5,-360 385.5,-360 385.5,-396"/>
<text text-anchor="middle" x="275" y="-374.3" font-family="Times,serif" font-size="14.00">It`s not a &#160;TUMOR (n=1660)</text>
</g>
<!-- nTUMOR&#45;&gt;mTUMOR -->
<g id="edge9" class="edge">
<title>nTUMOR&#45;&gt;mTUMOR</title>
<path fill="none" stroke="black" d="M275,-448.95C275,-447.75 275,-425.43 275,-406.32"/>
<polygon fill="black" stroke="black" points="278.5,-406.19 275,-396.19 271.5,-406.19 278.5,-406.19"/>
</g>
<!-- nPREPROC -->
<g id="node11" class="node">
<title>nPREPROC</title>
<ellipse fill="black" stroke="black" cx="275" cy="-306" rx="0.36" ry="0.36"/>
</g>
<!-- mTUMOR&#45;&gt;nPREPROC -->
<g id="edge10" class="edge">
<title>mTUMOR&#45;&gt;nPREPROC</title>
<path fill="none" stroke="black" d="M275,-359.7C275,-339.62 275,-308.99 275,-307.09"/>
</g>
<!-- ePREPROC -->
<g id="node12" class="node">
<title>ePREPROC</title>
<polygon fill="none" stroke="black" points="561,-324 293,-324 293,-288 561,-288 561,-324"/>
<text text-anchor="middle" x="427" y="-302.3" font-family="Times,serif" font-size="14.00">General preprocessing failed (n=2)</text>
</g>
<!-- nPREPROC&#45;&gt;ePREPROC -->
<g id="edge11" class="edge">
<title>nPREPROC&#45;&gt;ePREPROC</title>
<path fill="none" stroke="black" d="M275.59,-306C277.92,-306 280.24,-306 282.56,-306"/>
<polygon fill="black" stroke="black" points="282.75,-309.5 292.75,-306 282.75,-302.5 282.75,-309.5"/>
</g>
<!-- mPREPROC -->
<g id="node13" class="node">
<title>mPREPROC</title>
<polygon fill="none" stroke="black" points="408,-252 142,-252 142,-216 408,-216 408,-252"/>
<text text-anchor="middle" x="275" y="-230.3" font-family="Times,serif" font-size="14.00">Preprocessing succesfull (n=1658)</text>
</g>
<!-- nPREPROC&#45;&gt;mPREPROC -->
<g id="edge12" class="edge">
<title>nPREPROC&#45;&gt;mPREPROC</title>
<path fill="none" stroke="black" d="M275,-304.95C275,-303.75 275,-281.43 275,-262.32"/>
<polygon fill="black" stroke="black" points="278.5,-262.19 275,-252.19 271.5,-262.19 278.5,-262.19"/>
</g>
<!-- n3a -->
<g id="node15" class="node">
<title>n3a</title>
<ellipse fill="black" stroke="black" cx="266" cy="-162" rx="0.36" ry="0.36"/>
</g>
<!-- mPREPROC&#45;&gt;n3a -->
<g id="edge13" class="edge">
<title>mPREPROC:s&#45;&gt;n3a</title>
<path fill="none" stroke="black" d="M275,-216C275,-192.85 266.55,-164.81 266.03,-163.08"/>
</g>
<!-- n3b -->
<g id="node16" class="node">
<title>n3b</title>
<ellipse fill="black" stroke="black" cx="285" cy="-162" rx="0.36" ry="0.36"/>
</g>
<!-- mPREPROC&#45;&gt;n3b -->
<g id="edge14" class="edge">
<title>mPREPROC:s&#45;&gt;n3b</title>
<path fill="none" stroke="black" d="M275,-216C275,-192.78 284.38,-164.81 284.97,-163.08"/>
</g>
<!-- e3a -->
<g id="node14" class="node">
<title>e3a</title>
<polygon fill="none" stroke="black" points="248,-180 0,-180 0,-144 248,-144 248,-180"/>
<text text-anchor="middle" x="124" y="-158.3" font-family="Times,serif" font-size="14.00">WMH segmentation failed (n=6)</text>
</g>
<!-- e3a&#45;&gt;n3a -->
<g id="edge15" class="edge">
<title>e3a:e&#45;&gt;n3a:w</title>
<path fill="none" stroke="black" d="M258.21,-162C260.24,-162 262.45,-162 265.64,-162"/>
<polygon fill="black" stroke="black" points="258,-158.5 248,-162 258,-165.5 258,-158.5"/>
</g>
<!-- e3a&#45;&gt;n3a -->
<g id="edge17" class="edge">
<title>e3a&#45;&gt;n3a</title>
</g>
<!-- n3a&#45;&gt;n3b -->
<g id="edge18" class="edge">
<title>n3a&#45;&gt;n3b</title>
</g>
<!-- m4a -->
<g id="node18" class="node">
<title>m4a</title>
<polygon fill="none" stroke="black" points="269,-108 101,-108 101,-72 269,-72 269,-108"/>
<text text-anchor="middle" x="185" y="-86.3" font-family="Times,serif" font-size="14.00">WMH good (n=1652)</text>
</g>
<!-- n3a&#45;&gt;m4a -->
<g id="edge20" class="edge">
<title>n3a&#45;&gt;m4a</title>
<path fill="none" stroke="black" d="M265.96,-160.88C265.56,-159.7 262.23,-150.07 257,-144 247.21,-132.65 234.56,-122.32 222.61,-113.86"/>
<polygon fill="black" stroke="black" points="224.31,-110.78 214.07,-108.04 220.36,-116.56 224.31,-110.78"/>
</g>
<!-- e3b -->
<g id="node17" class="node">
<title>e3b</title>
<polygon fill="none" stroke="black" points="484.5,-180 303.5,-180 303.5,-144 484.5,-144 484.5,-180"/>
<text text-anchor="middle" x="394" y="-158.3" font-family="Times,serif" font-size="14.00">xcpEngine failed (n=1)</text>
</g>
<!-- n3b&#45;&gt;e3b -->
<g id="edge16" class="edge">
<title>n3b&#45;&gt;e3b</title>
<path fill="none" stroke="black" d="M285.43,-162C288.02,-161.97 290.62,-161.95 293.22,-161.92"/>
<polygon fill="black" stroke="black" points="293.27,-165.42 303.24,-161.85 293.21,-158.42 293.27,-165.42"/>
</g>
<!-- n3b&#45;&gt;e3b -->
<g id="edge19" class="edge">
<title>n3b&#45;&gt;e3b</title>
</g>
<!-- m4b -->
<g id="node19" class="node">
<title>m4b</title>
<polygon fill="none" stroke="black" points="445,-108 287,-108 287,-72 445,-72 445,-108"/>
<text text-anchor="middle" x="366" y="-86.3" font-family="Times,serif" font-size="14.00">XCP good (n=1661)</text>
</g>
<!-- n3b&#45;&gt;m4b -->
<g id="edge21" class="edge">
<title>n3b&#45;&gt;m4b</title>
<path fill="none" stroke="black" d="M285.05,-160.88C285.53,-159.71 289.52,-150.12 295,-144 304.99,-132.85 317.66,-122.51 329.51,-113.98"/>
<polygon fill="black" stroke="black" points="331.75,-116.69 337.95,-108.11 327.75,-110.95 331.75,-116.69"/>
</g>
<!-- mFINAL -->
<g id="node20" class="node">
<title>mFINAL</title>
<polygon fill="#5cacee" stroke="#36648b" stroke-width="3" stroke-dasharray="5,2" points="359.5,-36 190.5,-36 190.5,0 359.5,0 359.5,-36"/>
<text text-anchor="middle" x="275" y="-14.3" font-family="Times,serif" font-size="14.00">Final batch (n=1651)</text>
</g>
<!-- m4a&#45;&gt;mFINAL -->
<g id="edge22" class="edge">
<title>m4a&#45;&gt;mFINAL</title>
<path fill="none" stroke="black" d="M207.25,-71.7C218.58,-62.88 232.53,-52.03 244.82,-42.47"/>
<polygon fill="black" stroke="black" points="247.26,-45.01 253.01,-36.1 242.97,-39.48 247.26,-45.01"/>
</g>
<!-- m4b&#45;&gt;mFINAL -->
<g id="edge23" class="edge">
<title>m4b&#45;&gt;mFINAL</title>
<path fill="none" stroke="black" d="M343.51,-71.7C332.04,-62.88 317.94,-52.03 305.52,-42.47"/>
<polygon fill="black" stroke="black" points="307.3,-39.43 297.24,-36.1 303.03,-44.98 307.3,-39.43"/>
</g>
</g>
</svg>
