<?xml version="1.0" encoding="UTF-8" standalone="no"?>
<!DOCTYPE svg PUBLIC "-//W3C//DTD SVG 1.1//EN"
 "http://www.w3.org/Graphics/SVG/1.1/DTD/svg11.dtd">
<!-- Generated by graphviz version 2.43.0 (0)
 -->
<!-- Title: D Pages: 1 -->
<svg width="605pt" height="868pt"
 viewBox="0.00 0.00 605.00 868.00" xmlns="http://www.w3.org/2000/svg" xmlns:xlink="http://www.w3.org/1999/xlink">
<g id="graph0" class="graph" transform="scale(1 1) rotate(0) translate(4 864)">
<title>D</title>
<polygon fill="white" stroke="transparent" points="-4,4 -4,-864 601,-864 601,4 -4,4"/>
<!-- m1 -->
<g id="node1" class="node">
<title>m1</title>
<polygon fill="none" stroke="black" points="395,-860 156,-860 156,-824 395,-824 395,-860"/>
<text text-anchor="middle" x="275.5" y="-838.3" font-family="Times,serif" font-size="14.00">Available HCHS data (n=2648)</text>
</g>
<!-- n1 -->
<g id="node2" class="node">
<title>n1</title>
<ellipse fill="black" stroke="black" cx="275.5" cy="-770" rx="0.36" ry="0.36"/>
</g>
<!-- m1&#45;&gt;n1 -->
<g id="edge1" class="edge">
<title>m1&#45;&gt;n1</title>
<path fill="none" stroke="black" d="M275.5,-823.7C275.5,-803.62 275.5,-772.99 275.5,-771.09"/>
</g>
<!-- e1 -->
<g id="node3" class="node">
<title>e1</title>
<polygon fill="none" stroke="black" points="515.5,-788 293.5,-788 293.5,-752 515.5,-752 515.5,-788"/>
<text text-anchor="middle" x="404.5" y="-766.3" font-family="Times,serif" font-size="14.00">Previously analysed (n=970)</text>
</g>
<!-- n1&#45;&gt;e1 -->
<g id="edge2" class="edge">
<title>n1&#45;&gt;e1</title>
<path fill="none" stroke="black" d="M276,-770C278.44,-770 280.87,-770 283.31,-770"/>
<polygon fill="black" stroke="black" points="283.32,-773.5 293.32,-770 283.32,-766.5 283.32,-773.5"/>
</g>
<!-- m2 -->
<g id="node4" class="node">
<title>m2</title>
<polygon fill="none" stroke="black" points="392,-716 159,-716 159,-680 392,-680 392,-716"/>
<text text-anchor="middle" x="275.5" y="-694.3" font-family="Times,serif" font-size="14.00">Unseen participants (n=1678)</text>
</g>
<!-- n1&#45;&gt;m2 -->
<g id="edge3" class="edge">
<title>n1&#45;&gt;m2</title>
<path fill="none" stroke="black" d="M275.5,-768.95C275.5,-767.75 275.5,-745.43 275.5,-726.32"/>
<polygon fill="black" stroke="black" points="279,-726.19 275.5,-716.19 272,-726.19 279,-726.19"/>
</g>
<!-- n2 -->
<g id="node5" class="node">
<title>n2</title>
<ellipse fill="black" stroke="black" cx="275.5" cy="-610" rx="0.36" ry="0.36"/>
</g>
<!-- m2&#45;&gt;n2 -->
<g id="edge4" class="edge">
<title>m2&#45;&gt;n2</title>
<path fill="none" stroke="black" d="M275.5,-679.6C275.5,-655.25 275.5,-613.7 275.5,-611.13"/>
</g>
<!-- e2 -->
<g id="node6" class="node">
<title>e2</title>
<polygon fill="none" stroke="black" points="469,-644 294,-644 294,-576 469,-576 469,-644"/>
<text text-anchor="start" x="302" y="-628.8" font-family="Times,serif" font-size="14.00">Sequences missing</text>
<text text-anchor="start" x="302" y="-613.8" font-family="Times,serif" font-size="14.00"> &#45;T1 missing (n=10)</text>
<text text-anchor="start" x="302" y="-598.8" font-family="Times,serif" font-size="14.00"> &#45;FLAIR missing (n=8)</text>
<text text-anchor="start" x="302" y="-583.8" font-family="Times,serif" font-size="14.00"> &#45;BOLD missing (n=4)</text>
</g>
<!-- n2&#45;&gt;e2 -->
<g id="edge5" class="edge">
<title>n2&#45;&gt;e2</title>
<path fill="none" stroke="black" d="M275.91,-610C278.41,-610 280.9,-610 283.4,-610"/>
<polygon fill="black" stroke="black" points="283.65,-613.5 293.65,-610 283.65,-606.5 283.65,-613.5"/>
</g>
<!-- m3 -->
<g id="node7" class="node">
<title>m3</title>
<polygon fill="none" stroke="black" points="385,-540 166,-540 166,-504 385,-504 385,-540"/>
<text text-anchor="middle" x="275.5" y="-518.3" font-family="Times,serif" font-size="14.00">Complete imaging (n=1665)</text>
</g>
<!-- n2&#45;&gt;m3 -->
<g id="edge6" class="edge">
<title>n2&#45;&gt;m3</title>
<path fill="none" stroke="black" d="M275.5,-608.94C275.5,-607.33 275.5,-575.11 275.5,-550.59"/>
<polygon fill="black" stroke="black" points="279,-550.33 275.5,-540.33 272,-550.33 279,-550.33"/>
</g>
<!-- nTUMOR -->
<g id="node8" class="node">
<title>nTUMOR</title>
<ellipse fill="black" stroke="black" cx="275.5" cy="-450" rx="0.36" ry="0.36"/>
</g>
<!-- m3&#45;&gt;nTUMOR -->
<g id="edge7" class="edge">
<title>m3&#45;&gt;nTUMOR</title>
<path fill="none" stroke="black" d="M275.5,-503.7C275.5,-483.62 275.5,-452.99 275.5,-451.09"/>
</g>
<!-- eTUMOR -->
<g id="node9" class="node">
<title>eTUMOR</title>
<polygon fill="none" stroke="black" points="597,-468 294,-468 294,-432 597,-432 597,-468"/>
<text text-anchor="middle" x="445.5" y="-446.3" font-family="Times,serif" font-size="14.00">Intra&#45;axial space&#45;occupying lesion (n=5)</text>
</g>
<!-- nTUMOR&#45;&gt;eTUMOR -->
<g id="edge8" class="edge">
<title>nTUMOR&#45;&gt;eTUMOR</title>
<path fill="none" stroke="black" d="M276.16,-450C278.63,-450 281.09,-450 283.56,-450"/>
<polygon fill="black" stroke="black" points="283.69,-453.5 293.69,-450 283.69,-446.5 283.69,-453.5"/>
</g>
<!-- mTUMOR -->
<g id="node10" class="node">
<title>mTUMOR</title>
<polygon fill="none" stroke="black" points="381,-396 170,-396 170,-360 381,-360 381,-396"/>
<text text-anchor="middle" x="275.5" y="-374.3" font-family="Times,serif" font-size="14.00">Study population (n=1660)</text>
</g>
<!-- nTUMOR&#45;&gt;mTUMOR -->
<g id="edge9" class="edge">
<title>nTUMOR&#45;&gt;mTUMOR</title>
<path fill="none" stroke="black" d="M275.5,-448.95C275.5,-447.75 275.5,-425.43 275.5,-406.32"/>
<polygon fill="black" stroke="black" points="279,-406.19 275.5,-396.19 272,-406.19 279,-406.19"/>
</g>
<!-- nPREPROC -->
<g id="node11" class="node">
<title>nPREPROC</title>
<ellipse fill="black" stroke="black" cx="275.5" cy="-306" rx="0.36" ry="0.36"/>
</g>
<!-- mTUMOR&#45;&gt;nPREPROC -->
<g id="edge10" class="edge">
<title>mTUMOR&#45;&gt;nPREPROC</title>
<path fill="none" stroke="black" d="M275.5,-359.7C275.5,-339.62 275.5,-308.99 275.5,-307.09"/>
</g>
<!-- ePREPROC -->
<g id="node12" class="node">
<title>ePREPROC</title>
<polygon fill="none" stroke="black" points="561.5,-324 293.5,-324 293.5,-288 561.5,-288 561.5,-324"/>
<text text-anchor="middle" x="427.5" y="-302.3" font-family="Times,serif" font-size="14.00">General preprocessing failed (n=2)</text>
</g>
<!-- nPREPROC&#45;&gt;ePREPROC -->
<g id="edge11" class="edge">
<title>nPREPROC&#45;&gt;ePREPROC</title>
<path fill="none" stroke="black" d="M276.09,-306C278.42,-306 280.74,-306 283.06,-306"/>
<polygon fill="black" stroke="black" points="283.25,-309.5 293.25,-306 283.25,-302.5 283.25,-309.5"/>
</g>
<!-- mPREPROC -->
<g id="node13" class="node">
<title>mPREPROC</title>
<polygon fill="none" stroke="black" points="408.5,-252 142.5,-252 142.5,-216 408.5,-216 408.5,-252"/>
<text text-anchor="middle" x="275.5" y="-230.3" font-family="Times,serif" font-size="14.00">Preprocessing succesfull (n=1658)</text>
</g>
<!-- nPREPROC&#45;&gt;mPREPROC -->
<g id="edge12" class="edge">
<title>nPREPROC&#45;&gt;mPREPROC</title>
<path fill="none" stroke="black" d="M275.5,-304.95C275.5,-303.75 275.5,-281.43 275.5,-262.32"/>
<polygon fill="black" stroke="black" points="279,-262.19 275.5,-252.19 272,-262.19 279,-262.19"/>
</g>
<!-- n3a -->
<g id="node15" class="node">
<title>n3a</title>
<ellipse fill="black" stroke="black" cx="266.5" cy="-162" rx="0.36" ry="0.36"/>
</g>
<!-- mPREPROC&#45;&gt;n3a -->
<g id="edge13" class="edge">
<title>mPREPROC:s&#45;&gt;n3a</title>
<path fill="none" stroke="black" d="M275.5,-216C275.5,-192.85 267.05,-164.81 266.53,-163.08"/>
</g>
<!-- n3b -->
<g id="node16" class="node">
<title>n3b</title>
<ellipse fill="black" stroke="black" cx="285.5" cy="-162" rx="0.36" ry="0.36"/>
</g>
<!-- mPREPROC&#45;&gt;n3b -->
<g id="edge14" class="edge">
<title>mPREPROC:s&#45;&gt;n3b</title>
<path fill="none" stroke="black" d="M275.5,-216C275.5,-192.78 284.88,-164.81 285.47,-163.08"/>
</g>
<!-- e3a -->
<g id="node14" class="node">
<title>e3a</title>
<polygon fill="none" stroke="black" points="248.5,-180 0.5,-180 0.5,-144 248.5,-144 248.5,-180"/>
<text text-anchor="middle" x="124.5" y="-158.3" font-family="Times,serif" font-size="14.00">WMH segmentation failed (n=6)</text>
</g>
<!-- e3a&#45;&gt;n3a -->
<g id="edge15" class="edge">
<title>e3a:e&#45;&gt;n3a:w</title>
<path fill="none" stroke="black" d="M258.71,-162C260.74,-162 262.95,-162 266.14,-162"/>
<polygon fill="black" stroke="black" points="258.5,-158.5 248.5,-162 258.5,-165.5 258.5,-158.5"/>
</g>
<!-- e3a&#45;&gt;n3a -->
<g id="edge17" class="edge">
<title>e3a&#45;&gt;n3a</title>
</g>
<!-- n3a&#45;&gt;n3b -->
<g id="edge18" class="edge">
<title>n3a&#45;&gt;n3b</title>
</g>
<!-- m4a -->
<g id="node18" class="node">
<title>m4a</title>
<polygon fill="none" stroke="black" points="261,-108 0,-108 0,-72 261,-72 261,-108"/>
<text text-anchor="middle" x="130.5" y="-86.3" font-family="Times,serif" font-size="14.00">WMH volumes available (n=1652)</text>
</g>
<!-- n3a&#45;&gt;m4a -->
<g id="edge20" class="edge">
<title>n3a&#45;&gt;m4a</title>
<path fill="none" stroke="black" d="M266.47,-160.87C266.15,-159.62 263.42,-149.4 257.5,-144 242.4,-130.22 223.21,-119.74 204.35,-111.88"/>
<polygon fill="black" stroke="black" points="205.43,-108.54 194.84,-108.12 202.85,-115.05 205.43,-108.54"/>
</g>
<!-- e3b -->
<g id="node17" class="node">
<title>e3b</title>
<polygon fill="none" stroke="black" points="485,-180 304,-180 304,-144 485,-144 485,-180"/>
<text text-anchor="middle" x="394.5" y="-158.3" font-family="Times,serif" font-size="14.00">xcpEngine failed (n=1)</text>
</g>
<!-- n3b&#45;&gt;e3b -->
<g id="edge16" class="edge">
<title>n3b&#45;&gt;e3b</title>
<path fill="none" stroke="black" d="M285.93,-162C288.52,-161.97 291.12,-161.95 293.72,-161.92"/>
<polygon fill="black" stroke="black" points="293.77,-165.42 303.74,-161.85 293.71,-158.42 293.77,-165.42"/>
</g>
<!-- n3b&#45;&gt;e3b -->
<g id="edge19" class="edge">
<title>n3b&#45;&gt;e3b</title>
</g>
<!-- m4b -->
<g id="node19" class="node">
<title>m4b</title>
<polygon fill="none" stroke="black" points="563.5,-108 279.5,-108 279.5,-72 563.5,-72 563.5,-108"/>
<text text-anchor="middle" x="421.5" y="-86.3" font-family="Times,serif" font-size="14.00">Deconfounded FC available (n=1657)</text>
</g>
<!-- n3b&#45;&gt;m4b -->
<g id="edge21" class="edge">
<title>n3b&#45;&gt;m4b</title>
<path fill="none" stroke="black" d="M285.54,-160.87C285.94,-159.62 289.31,-149.41 295.5,-144 311.23,-130.24 331.06,-119.67 350.3,-111.73"/>
<polygon fill="black" stroke="black" points="351.65,-114.96 359.67,-108.04 349.08,-108.45 351.65,-114.96"/>
</g>
<!-- mFINAL -->
<g id="node20" class="node">
<title>mFINAL</title>
<polygon fill="#5cacee" stroke="#36648b" stroke-width="3" stroke-dasharray="5,2" points="368.5,-36 182.5,-36 182.5,0 368.5,0 368.5,-36"/>
<text text-anchor="middle" x="275.5" y="-14.3" font-family="Times,serif" font-size="14.00">Study sample (n=1651)</text>
</g>
<!-- m4a&#45;&gt;mFINAL -->
<g id="edge22" class="edge">
<title>m4a&#45;&gt;mFINAL</title>
<path fill="none" stroke="black" d="M165.97,-71.88C185.62,-62.39 210.22,-50.51 231.13,-40.42"/>
<polygon fill="black" stroke="black" points="232.66,-43.57 240.14,-36.07 229.62,-37.26 232.66,-43.57"/>
</g>
<!-- m4b&#45;&gt;mFINAL -->
<g id="edge23" class="edge">
<title>m4b&#45;&gt;mFINAL</title>
<path fill="none" stroke="black" d="M385.78,-71.88C366,-62.39 341.23,-50.51 320.17,-40.42"/>
<polygon fill="black" stroke="black" points="321.63,-37.24 311.1,-36.07 318.6,-43.55 321.63,-37.24"/>
</g>
</g>
</svg>
